<?xml version="1.0" encoding="iso-8859-1"?>
<!-- Uploaded to: SVG Repo, www.svgrepo.com, Generator: SVG Repo Mixer Tools -->
<svg fill="#000000" version="1.1" id="Capa_1" xmlns="http://www.w3.org/2000/svg" xmlns:xlink="http://www.w3.org/1999/xlink" 
	 viewBox="0 0 60 60" xml:space="preserve">
<g>
	<g>
		<rect x="18" y="1" width="7" height="2"/>
		<rect x="36" y="1" width="6" height="2"/>
		<path d="M59,1h-6v2h5v15H2V3h5V1H1C0.4,1,0,1.4,0,2v17v40c0,0.6,0.4,1,1,1h58c0.6,0,1-0.4,1-1V19V2C60,1.4,59.6,1,59,1z M58,58H2
			V20h56V58z"/>
		<path d="M30,14h1c1.7,0,3-1.3,3-3V3c0-1.7-1.3-3-3-3h-1c-1.7,0-3,1.3-3,3v8C27,12.7,28.3,14,30,14z M29,3c0-0.6,0.4-1,1-1h1
			c0.6,0,1,0.4,1,1v8c0,0.6-0.4,1-1,1h-1c-0.6,0-1-0.4-1-1V3z"/>
		<path d="M47,14h1c1.7,0,3-1.3,3-3V3c0-1.7-1.3-3-3-3h-1c-1.7,0-3,1.3-3,3v8C44,12.7,45.3,14,47,14z M46,3c0-0.6,0.4-1,1-1h1
			c0.6,0,1,0.4,1,1v8c0,0.6-0.4,1-1,1h-1c-0.6,0-1-0.4-1-1V3z"/>
		<path d="M12,14h1c1.7,0,3-1.3,3-3V3c0-1.7-1.3-3-3-3h-1c-1.7,0-3,1.3-3,3v8C9,12.7,10.3,14,12,14z M11,3c0-0.6,0.4-1,1-1h1
			c0.6,0,1,0.4,1,1v8c0,0.6-0.4,1-1,1h-1c-0.6,0-1-0.4-1-1V3z"/>
		<path d="M7,32h7c0.6,0,1-0.4,1-1v-6c0-0.6-0.4-1-1-1H7c-0.6,0-1,0.4-1,1v6C6,31.6,6.4,32,7,32z M8,26h5v4H8V26z"/>
		<path d="M20,32h7c0.6,0,1-0.4,1-1v-6c0-0.6-0.4-1-1-1h-7c-0.6,0-1,0.4-1,1v6C19,31.6,19.4,32,20,32z M21,26h5v4h-5V26z"/>
		<path d="M39,31h2v-6c0-0.6-0.4-1-1-1h-7v2h6V31z"/>
		<path d="M46,32h7c0.6,0,1-0.4,1-1v-6c0-0.6-0.4-1-1-1h-7c-0.6,0-1,0.4-1,1v6C45,31.6,45.4,32,46,32z M47,26h5v4h-5V26z"/>
		<path d="M14,35H7v2h6v5h2v-6C15,35.4,14.6,35,14,35z"/>
		<path d="M20,43h7c0.6,0,1-0.4,1-1v-6c0-0.6-0.4-1-1-1h-7c-0.6,0-1,0.4-1,1v6C19,42.6,19.4,43,20,43z M21,37h5v4h-5V37z"/>
		<path d="M33,43h7c0.6,0,1-0.4,1-1v-6c0-0.6-0.4-1-1-1h-7c-0.6,0-1,0.4-1,1v6C32,42.6,32.4,43,33,43z M34,37h5v4h-5V37z"/>
		<path d="M46,43h7c0.6,0,1-0.4,1-1v-6c0-0.6-0.4-1-1-1h-7c-0.6,0-1,0.4-1,1v6C45,42.6,45.4,43,46,43z M47,37h5v4h-5V37z"/>
		<path d="M7,54h7c0.6,0,1-0.4,1-1v-6c0-0.6-0.4-1-1-1H7c-0.6,0-1,0.4-1,1v6C6,53.6,6.4,54,7,54z M8,48h5v4H8V48z"/>
		<path d="M27,46h-7v2h6v5h2v-6C28,46.4,27.6,46,27,46z"/>
		<path d="M33,54h7c0.6,0,1-0.4,1-1v-6c0-0.6-0.4-1-1-1h-7c-0.6,0-1,0.4-1,1v6C32,53.6,32.4,54,33,54z M34,48h5v4h-5V48z"/>
		<path d="M53,46h-7v2h6v5h2v-6C54,46.4,53.6,46,53,46z"/>
	</g>
</g>
</svg>